<svg xmlns="http://www.w3.org/2000/svg" viewBox="0 0 200 140">
  <!-- Outer eye shape -->
  <ellipse cx="100" cy="70" rx="95" ry="65" fill="#000000"/>
  <ellipse cx="100" cy="70" rx="85" ry="55" fill="#FFFFFF"/>
  
  <!-- Left arrows -->
  <path d="M 15 70 L 40 50 L 40 90 Z" fill="#000000"/>
  <path d="M 25 70 L 45 55 L 45 85 Z" fill="#000000"/>
  
  <!-- Right arrows -->
  <path d="M 185 70 L 160 50 L 160 90 Z" fill="#000000"/>
  <path d="M 175 70 L 155 55 L 155 85 Z" fill="#000000"/>
  
  <!-- Iris outer ring -->
  <circle cx="100" cy="70" r="45" fill="#000000"/>
  <circle cx="100" cy="70" r="40" fill="#FFFFFF"/>
  
  <!-- Inner rings -->
  <circle cx="100" cy="70" r="35" fill="#000000"/>
  <circle cx="100" cy="70" r="30" fill="#FFFFFF"/>
  
  <!-- Brain pattern inside -->
  <path d="M 90 65 Q 85 60 90 55 Q 95 50 100 55 Q 105 50 110 55 Q 115 60 110 65" stroke="#000000" stroke-width="2" fill="none"/>
  <path d="M 88 70 Q 83 75 88 80 Q 93 85 98 80" stroke="#000000" stroke-width="2" fill="none"/>
  <path d="M 102 80 Q 107 85 112 80 Q 117 75 112 70" stroke="#000000" stroke-width="2" fill="none"/>
  <path d="M 95 68 Q 90 68 90 73 Q 90 78 95 78" stroke="#000000" stroke-width="1.5" fill="none"/>
  <path d="M 105 68 Q 110 68 110 73 Q 110 78 105 78" stroke="#000000" stroke-width="1.5" fill="none"/>
  
  <!-- Center pupil -->
  <circle cx="100" cy="70" r="8" fill="#000000"/>
</svg>
